<?xml version="1.0" encoding="utf-8"?>
<!-- Generator: Adobe Illustrator 24.1.2, SVG Export Plug-In . SVG Version: 6.00 Build 0)  -->
<svg version="1.1" id="Capa_1" xmlns="http://www.w3.org/2000/svg" xmlns:xlink="http://www.w3.org/1999/xlink" x="0px" y="0px"
	 width="30px" height="28px" viewBox="0 0 30 28" style="enable-background:new 0 0 30 28;" xml:space="preserve">
<style type="text/css">
	.st0{fill:#FFFFFF;}
</style>
<path class="st0" d="M0,1c0-0.6,0.4-1,1-1h3c0.5,0,0.9,0.3,1,0.8L5.8,4H29c0.6,0,1,0.4,1,1c0,0.1,0,0.2,0,0.2l-3,12
	c-0.1,0.4-0.5,0.8-1,0.8H8c-0.5,0-0.9-0.3-1-0.8L3.2,2H1C0.4,2,0,1.6,0,1z M6.3,6l2.5,10h16.4l2.5-10H6.3z M10,22c-1.1,0-2,0.9-2,2
	s0.9,2,2,2s2-0.9,2-2S11.1,22,10,22z M6,24c0-2.2,1.8-4,4-4s4,1.8,4,4s-1.8,4-4,4S6,26.2,6,24z M24,22c-1.1,0-2,0.9-2,2s0.9,2,2,2
	s2-0.9,2-2S25.1,22,24,22z M20,24c0-2.2,1.8-4,4-4s4,1.8,4,4s-1.8,4-4,4S20,26.2,20,24z"/>
</svg>
